<?xml version="1.0" encoding="UTF-8"?>
<!DOCTYPE svg PUBLIC "-//W3C//DTD SVG 1.1//EN" "http://www.w3.org/Graphics/SVG/1.1/DTD/svg11.dtd">
<!-- Creator: CorelDRAW -->
<svg xmlns="http://www.w3.org/2000/svg" xml:space="preserve" width="6.82666in" height="6.82666in" style="shape-rendering:geometricPrecision; text-rendering:geometricPrecision; image-rendering:optimizeQuality; fill-rule:evenodd; clip-rule:evenodd"
viewBox="0 0 6.82666 6.82666"
 xmlns:xlink="http://www.w3.org/1999/xlink">
 <defs>
  <style type="text/css">
   <![CDATA[
    .fil1 {fill:#FEFEFE;fill-rule:nonzero}
    .fil0 {fill:url(#id0)}
   ]]>
  </style>
  <linearGradient id="id0" gradientUnits="userSpaceOnUse" x1="1.68784" y1="0.424697" x2="5.13882" y2="6.40196">
   <stop offset="0" style="stop-color:#444FF5"/>
   <stop offset="0.490196" style="stop-color:#21BFDB"/>
   <stop offset="1" style="stop-color:#1DABB6"/>
  </linearGradient>
 </defs>
 <g id="Layer_x0020_1">
  <metadata id="CorelCorpID_0Corel-Layer"/>
  <path class="fil0" d="M6.36936 1.70667c0.942567,1.63257 0.383209,3.72013 -1.24937,4.6627 -1.63257,0.942567 -3.72013,0.383209 -4.6627,-1.24937 -0.942567,-1.63257 -0.383209,-3.72013 1.24937,-4.6627 1.63257,-0.942567 3.72013,-0.383209 4.6627,1.24937z"/>
  <g id="_431980456">
   <path id="_431981176" class="fil1" d="M5.34499 1.48167c-0.245776,-0.00365354 -0.89076,0.0195709 -1.57898,0.31435 -0.745736,0.319417 -1.54157,0.959256 -1.93083,2.23328l0.481094 0.481091 0.481094 0.481094c1.27402,-0.389264 1.91386,-1.1851 2.23327,-1.93083 0.294783,-0.688217 0.318004,-1.3332 0.31435,-1.57898zm-1.62928 0.196138c0.772638,-0.330941 1.49415,-0.330311 1.68917,-0.323016l9.44882e-005 -3.93701e-006c0.0355315,-0.00141339 0.0654882,0.0262441 0.0669016,0.0617717l-0.0643346 0.00256299 0.0641378 -0.00251575c0.00745669,0.187276 0.0110591,0.914843 -0.322823,1.69435 -0.33439,0.780689 -1.00584,1.614 -2.34663,2.01331 -0.0230394,0.00888189 -0.0501496,0.00403543 -0.0687323,-0.0145472l3.93701e-006 -3.93701e-006 -0.508272 -0.508272 -0.507154 -0.507154c-0.0169331,-0.0161457 -0.0244331,-0.0409803 -0.0173228,-0.0649488l0.00015748 4.33071e-005c0.398717,-1.3441 1.23315,-2.01677 2.0148,-2.35157z"/>
   <path id="_431981104" class="fil1" d="M4.34933 2.47733c0.112831,0.112823 0.169244,0.260701 0.169244,0.408571 0,0.14787 -0.0564134,0.295744 -0.169244,0.408571 -0.112827,0.112827 -0.260705,0.169248 -0.408571,0.169248 -0.14787,0 -0.295748,-0.0564213 -0.408575,-0.169248 -0.112827,-0.112827 -0.169248,-0.260701 -0.169248,-0.408571 0,-0.14787 0.0564213,-0.295748 0.169248,-0.408571 0.112827,-0.112831 0.260705,-0.169244 0.408575,-0.169244 0.147866,0 0.295744,0.0564134 0.408571,0.169244zm0.0404685 0.408571c0,-0.114921 -0.0438386,-0.229846 -0.13152,-0.317524 -0.0876732,-0.0876772 -0.202598,-0.131516 -0.31752,-0.131516 -0.114925,0 -0.22985,0.0438425 -0.317528,0.131516 -0.0876732,0.0876772 -0.131516,0.202602 -0.131516,0.317524 0,0.114925 0.0438425,0.229843 0.131516,0.317524 0.0876811,0.0876732 0.202602,0.131516 0.317528,0.131516 0.114921,0 0.229846,-0.0438425 0.31752,-0.131516 0.0876772,-0.0876772 0.13152,-0.202598 0.13152,-0.317524z"/>
   <path id="_431980936" class="fil1" d="M1.50744 3.60878l0.330638 0.0252205c0.0723425,-0.180827 0.153028,-0.346917 0.240445,-0.499469 0.0525118,-0.0916339 0.107752,-0.178839 0.16535,-0.261839 -0.0988819,0.0485709 -0.206764,0.111689 -0.311075,0.1925 -0.168244,0.13035 -0.327736,0.307102 -0.425358,0.543587zm0.368055 0.157079l-0.459646 -0.0350591c-0.00629134,-0.000149606 -0.0126654,-0.00124016 -0.0189449,-0.00334646 -0.0337087,-0.0113189 -0.0518583,-0.0478268 -0.0405394,-0.0815354l0.000192913 6.29921e-005c0.10215,-0.30413 0.294228,-0.524717 0.497764,-0.682402 0.200831,-0.155591 0.412134,-0.249457 0.558146,-0.301717 0.0207953,-0.00825984 0.045315,-0.00543307 0.0640394,0.00954331 0.0277717,0.0222087 0.0322756,0.0627323 0.0100669,0.0905039l-0.000251969 -0.000200787c-0.104594,0.130787 -0.203937,0.275839 -0.296126,0.436709 -0.091315,0.159358 -0.174677,0.332811 -0.248075,0.521622 -0.00841732,0.0284882 -0.0358189,0.0482402 -0.0666339,0.0458937l7.87402e-006 -7.48031e-005z"/>
   <path id="_431980960" class="fil1" d="M3.09586 5.41081l-0.0350591 -0.45963 -7.08661e-005 3.93701e-006c-0.00235433,-0.0308228 0.0174055,-0.0582283 0.0459016,-0.0666417 0.188803,-0.0733976 0.362256,-0.156748 0.52161,-0.248067 0.16087,-0.092185 0.305921,-0.191528 0.436709,-0.29613l-0.00019685 -0.000248031c0.0277677,-0.0222087 0.0682913,-0.0177047 0.0905,0.0100669 0.0149803,0.0187283 0.0178031,0.0432598 0.00953543,0.064063 -0.0522638,0.146012 -0.14613,0.357299 -0.301709,0.558118 -0.157689,0.203535 -0.37828,0.395606 -0.682402,0.497756l6.69291e-005 0.000192913c-0.0337126,0.0113189 -0.0702205,-0.00683071 -0.0815394,-0.0405394 -0.0021063,-0.00627559 -0.00319291,-0.0126535 -0.00334646,-0.0189449zm0.0967992 -0.422217l0.0252205 0.330626c0.236476,-0.097622 0.41324,-0.25711 0.543583,-0.42535 0.080815,-0.104307 0.143933,-0.212189 0.1925,-0.311071 -0.0829961,0.0575945 -0.170205,0.112839 -0.261835,0.165346 -0.152551,0.0874252 -0.318642,0.168106 -0.499469,0.240449z"/>
   <path id="_431979952" class="fil1" d="M1.81405 4.37121l0.641394 0.641398c0.012378,0.012378 0.0287835,0.0185748 0.0452323,0.0185748 0.0160433,0 0.0320512,-0.00589764 0.0443189,-0.0176811 0.000543307,-0.000566929 0.0011063,-0.00111811 0.00166929,-0.00166535 0.011878,-0.0122874 0.0178268,-0.0283583 0.0178268,-0.0444685 0,-0.0164449 -0.00619291,-0.0328504 -0.0185748,-0.0452323l-3.93701e-006 -3.93701e-006 -0.64139 -0.64139c-0.0123819,-0.0123819 -0.0287874,-0.0185748 -0.0452362,-0.0185748 -0.0164488,0 -0.0328504,0.00619291 -0.0452323,0.0185748l3.93701e-006 3.93701e-006 -0.000255906 0.000248031c-0.0122165,0.0123543 -0.0183307,0.0286496 -0.0183307,0.0449843l-0.000248031 0c0,0.0162874 0.00627559,0.0326811 0.0188268,0.0452323zm0.550343 0.732445l-0.64139 -0.641394c-0.0373661,-0.0373661 -0.0560551,-0.0867795 -0.0560551,-0.136283l-0.000251969 0c0,-0.0487008 0.0182795,-0.0974488 0.0548307,-0.134795 0.000956693,-0.00101969 0.00194488,-0.00200394 0.0029685,-0.00296457 0.0373465,-0.0365472 0.0860945,-0.0548268 0.134791,-0.0548268 0.0493465,0 0.098752,0.0187677 0.136283,0.0562992l0.641394 0.641394 3.93701e-006 0c0.0375276,0.0375354 0.0562992,0.086937 0.0562992,0.136283 0,0.0490669 -0.0185591,0.0981772 -0.0556575,0.135626l-0.000645669 0.000665354 -3.93701e-006 -3.93701e-006c-0.0375315,0.0375354 -0.086937,0.0563031 -0.136283,0.0563031 -0.0493504,0 -0.098752,-0.0187677 -0.136283,-0.0563031z"/>
   <path id="_431980240" class="fil1" d="M2.22428 5.24344c-0.0369646,0.0328976 -0.320181,0.267386 -0.714756,0.102354l0.0246496 -0.0593583 -0.0248465 0.0593976c-0.0177953,-0.00744094 -0.0304882,-0.0219488 -0.036189,-0.0389016 -0.170594,-0.414122 0.0982913,-0.70463 0.107567,-0.714488l-7.87402e-006 -7.87402e-006 0.000192913 -0.000204724 -0.000110236 -9.84252e-005c0.00100787,-0.00107087 0.00204724,-0.00209449 0.00310236,-0.00308268 0.0387087,-0.0408583 0.08,-0.0724488 0.122693,-0.0958228 0.0475118,-0.0260118 0.0965157,-0.0415472 0.145457,-0.0480984l-2.75591e-005 -0.000212598c0.0277323,-0.00370079 0.053689,0.0108346 0.0657913,0.0343701 0.000877953,0.00134646 0.00177165,0.00262598 0.00269685,0.00382283 0.00106693,0.00138189 0.00291339,0.00339764 0.00556693,0.00604724l0.411449 0.411449c0.00167323,0.00167323 0.00322047,0.00309055 0.00462205,0.00423622 0.00215748,0.00177165 0.00379528,0.00302362 0.00490945,0.00376378l-0.0354646 0.0535748 0.0356614 -0.0536142c0.0227638,0.0151457 0.0327717,0.0422756 0.0272362,0.0674646 -0.00714567,0.0469213 -0.0225787,0.0937795 -0.047622,0.13922 -0.0238228,0.0432205 -0.0563268,0.0851732 -0.0986339,0.124618l9.84252e-005 0.000110236c-0.00130709,0.00121654 -0.00265354,0.00237008 -0.00403543,0.00346063zm-0.640547 -0.00656299c0.311465,0.116287 0.527705,-0.0648071 0.553957,-0.0883031 0.000905512,-0.000956693 0.00183858,-0.00188583 0.00281496,-0.00279528l0.0439055 0.0470984 -0.0437638 -0.0470315c0.0318661,-0.0297047 0.0560709,-0.0608031 0.0735276,-0.0924685 0.0121929,-0.0221299 0.0211102,-0.0445394 0.0270709,-0.0669331l-0.406236 -0.406236 -0.000917323 -0.000929134c-0.0221496,0.00588976 -0.0442913,0.0146614 -0.0661457,0.026626 -0.0307717,0.0168543 -0.0611811,0.0402953 -0.0904843,0.0711969 -0.000885827,0.0010748 -0.00181102,0.00213386 -0.00277953,0.00316142l-0.0469488 -0.044063 0.0467835 0.0440157c-0.000625984,0.000665354 -0.214787,0.224531 -0.0907835,0.556661z"/>
  </g>
 </g>
</svg>
